<?xml version="1.0" encoding="utf-8"?>
<!-- Generator: Adobe Illustrator 27.5.0, SVG Export Plug-In . SVG Version: 6.00 Build 0)  -->
<svg version="1.1" xmlns="http://www.w3.org/2000/svg" xmlns:xlink="http://www.w3.org/1999/xlink" x="0px" y="0px"
	 viewBox="0 0 500 500" style="enable-background:new 0 0 500 500;" xml:space="preserve">
<g id="BACKGROUND">
</g>
<g id="OBJECTS">
	<g>
		<path style="fill:#AAE0FE;" d="M169.27,90.03L169.27,90.03c0-5.63-4.564-10.194-10.194-10.194H107.78
			c-7.384,0-13.369,5.986-13.369,13.369l0,0c0,7.384,5.986,13.369,13.369,13.369h32.147c3.323,0,6.016,2.693,6.016,6.016l0,0
			c0,3.323,2.694,6.016,6.016,6.016h72.707c5.076,0,9.191-4.115,9.191-9.191l0,0c0-5.076-4.115-9.191-9.191-9.191h-45.202
			C173.834,100.224,169.27,95.66,169.27,90.03z"/>
		<path style="fill:#AAE0FE;" d="M317.656,62.296v-1.504c0-3.599-2.918-6.518-6.517-6.518h-3.259c-3.599,0-6.517-2.918-6.517-6.517
			l0,0c0-3.599-2.918-6.518-6.517-6.518h-34.342c-3.599,0-6.518,2.918-6.518,6.518l0,0c0,3.599-2.918,6.517-6.518,6.517h-18.675
			c-6.161,0-11.155,4.994-11.155,11.155l0,0c0,6.161,4.994,11.155,11.155,11.155h71.191c2.423,0,4.387,1.964,4.387,4.387v0
			c0,2.423,1.964,4.387,4.387,4.387h33.465c4.569,0,8.272-3.704,8.272-8.272l0,0c0-4.569-3.704-8.272-8.272-8.272h-18.048
			C320.574,68.813,317.656,65.895,317.656,62.296z"/>
		<path style="fill:#AAE0FE;" d="M332.951,106.282h-28.658c-3.577,0-6.477,2.9-6.477,6.477s2.9,6.477,6.477,6.477h28.658
			c3.577,0,6.477-2.9,6.477-6.477S336.528,106.282,332.951,106.282z"/>
	</g>
	<g>
		<g>
			<g>
				<path style="fill:#9BE5FE;" d="M55.061,269.806c-0.776,5.382,0.899,11.232,4.461,15.573c1.11,1.353,2.445,2.665,2.819,4.356
					c0.427,1.928-0.541,3.832-1.838,5.186s-2.923,2.341-4.249,3.665c-3.287,3.279-4.402,8.655-2.757,13.292
					c1.645,4.637,5.969,8.305,10.69,9.07c2.358,0.382,4.726,0.09,7.094,0.17c2.368,0.08,4.9,0.611,6.692,2.303
					c2.059,1.944,2.678,4.968,2.783,7.746s-0.175,5.599,0.585,8.31c1.595,5.695,7.486,9.438,13.181,10.31
					c5.695,0.872,11.324-0.493,16.863-1.59c5.539-1.097,12.268-2.528,17.777-0.622l-65.425-91.056
					C59.171,259.143,55.838,264.424,55.061,269.806z"/>
				<path style="fill:#77CCFE;" d="M79.098,252.536c5.349,0.982,10.358,4.436,13.336,9.196c0.928,1.484,1.746,3.167,3.229,4.062
					c1.691,1.02,3.804,0.709,5.501-0.087c1.697-0.796,3.151-2.023,4.829-2.858c4.156-2.069,9.607-1.41,13.477,1.628
					c3.87,3.038,5.967,8.307,5.186,13.025c-0.39,2.357-1.422,4.508-2.102,6.778c-0.68,2.27-0.984,4.839,0.048,7.077
					c1.186,2.572,3.854,4.123,6.454,5.109c2.6,0.986,5.362,1.62,7.69,3.206c4.888,3.329,6.556,10.105,5.566,15.781
					c-0.99,5.676-4.08,10.575-6.886,15.474c-2.807,4.9-6.31,10.82-6.261,16.649l-65.425-91.056
					C67.681,253.029,73.749,251.554,79.098,252.536z"/>
			</g>
			<path style="fill:#FFFFFF;" d="M119.93,332.455l13.557-26.139l-15.261,23.855l-17.279-23.162l12.023-34.366l-13.135,32.877
				l-15.684-21.025l0,0l0.371-23.569l-1.367,22.233l-16.667-22.81l16.301,23.073l-21.508-5.797l22.455,7.167l14.922,21.572
				l-35.349,1.959l36.406-0.431l16.439,23.766l-27.477,6.853l29.098-4.509l8.963,12.958c0.827,0.147,1.637,0.344,2.422,0.615
				c-0.007-0.83,0.065-1.661,0.19-2.491L119.93,332.455z"/>
		</g>
		<g>
			<g>
				<path style="fill:#FF9A30;" d="M346.452,163.706c2.818,4.944,3.428,11.283,1.623,16.875c-0.563,1.743-1.36,3.532-1.077,5.323
					c0.323,2.042,1.995,3.524,3.777,4.346c1.781,0.822,3.743,1.16,5.542,1.941c4.457,1.934,7.603,6.742,7.778,11.888
					c0.175,5.146-2.63,10.376-6.935,12.929c-2.15,1.275-4.568,1.899-6.843,2.884c-2.276,0.985-4.538,2.473-5.634,4.807
					c-1.26,2.682-0.704,5.864,0.258,8.61c0.963,2.746,2.316,5.385,2.615,8.317c0.628,6.157-3.674,12.059-8.886,15.091
					c-5.212,3.031-11.217,3.859-17.031,4.913c-5.814,1.054-12.916,2.239-17.55,6.205l28.824-113.746
					C338.364,154.896,343.634,158.762,346.452,163.706z"/>
				<path style="fill:#FFBB45;" d="M316.427,156.097c-4.833,3.005-8.388,8.289-9.463,14.066c-0.335,1.801-0.486,3.753-1.588,5.193
					c-1.256,1.641-3.433,2.148-5.391,2.023c-1.958-0.125-3.844-0.762-5.797-0.933c-4.84-0.422-9.896,2.308-12.501,6.749
					c-2.604,4.442-2.628,10.376-0.059,14.672c1.283,2.145,3.112,3.845,4.644,5.795c1.532,1.95,2.813,4.335,2.665,6.91
					c-0.17,2.959-2.173,5.492-4.328,7.448c-2.154,1.956-4.601,3.633-6.26,6.068c-3.485,5.115-2.513,12.353,0.627,17.501
					c3.139,5.148,8.025,8.735,12.636,12.431c4.611,3.696,10.291,8.12,12.477,13.815l28.824-113.746
					C327.734,152.202,321.259,153.092,316.427,156.097z"/>
			</g>
			<path style="fill:#FFFFFF;" d="M307.284,249.574l-23.218-20.261l24.002,17.383l7.952-29.178l-24.878-28.861l25.389,26.985
				l7.218-26.485l0,0l-9.392-22.81l9.851,21.128l7.491-28.6l-7.033,28.716l18.724-13.887l-19.122,15.585l-6.266,26.726
				l35.176-11.637l-35.62,13.531l-6.903,29.444l29.384-3.855l-30.065,6.758l-3.764,16.054c-0.749,0.46-1.463,0.962-2.123,1.527
				c-0.311-0.811-0.7-1.593-1.14-2.353L307.284,249.574z"/>
		</g>
		<g>
			<g>
				<path style="fill:#A27BBF;" d="M241.812,226.387c-0.771-0.142-1.281-0.883-1.138-1.654l20.675-111.92
					c0.142-0.771,0.883-1.281,1.654-1.138c31.626,5.842,52.603,36.325,46.76,67.951C303.921,211.253,273.439,232.23,241.812,226.387
					z M263.88,114.743l-20.153,109.092c29.581,4.697,57.772-15.104,63.244-44.725C312.443,149.49,293.187,120.925,263.88,114.743z"
					/>
			</g>
			
				<ellipse transform="matrix(0.9244 -0.3813 0.3813 0.9244 -45.383 109.0151)" style="fill:#9BE5FE;" cx="252.407" cy="169.031" rx="51.586" ry="51.586"/>
			<path style="fill:#77CCFE;" d="M303.135,178.402c5.175-28.016-13.341-54.923-41.357-60.099l-18.742,101.455
				C271.053,224.934,297.96,206.418,303.135,178.402z"/>
			<path style="fill:#662D91;" d="M268.424,236.878l-55.215-10.2c-2.57-0.475-5.039,1.224-5.513,3.794
				c-0.475,2.57,1.224,5.039,3.794,5.513l55.215,10.2c2.57,0.475,5.039-1.224,5.514-3.794
				C272.693,239.821,270.994,237.352,268.424,236.878z"/>
			<path style="fill:#662D91;" d="M242.579,222.238c-1.625-0.3-3.186,0.774-3.486,2.399l-1.455,7.878l5.885,1.087l1.455-7.878
				C245.278,224.098,244.204,222.538,242.579,222.238z"/>
			<g>
				<path style="fill:#C091E3;" d="M215.27,167.59c-0.535,2.894,1.378,5.674,4.272,6.208l18.416,3.402
					c5.783,1.068,11.337-2.754,12.405-8.537c1.068-5.783-2.754-11.337-8.537-12.405c-5.354-0.989-8.893-6.132-7.904-11.486
					c0.783-4.241-2.019-8.314-6.26-9.097l-12.516-2.312c-6.734,7.021-11.568,16.015-13.467,26.297l9.318,1.721
					C213.892,161.916,215.805,164.696,215.27,167.59z"/>
				<path style="fill:#C091E3;" d="M294.246,160.809L294.246,160.809c-1.157-0.214-1.921-1.325-1.707-2.481l1.003-5.429
					c0.704-3.812-1.815-7.474-5.628-8.178l-14.737-2.722c-3.898-0.72-7.642,1.856-8.362,5.754l-1.777,9.618
					c-0.72,3.898,1.856,7.642,5.754,8.362l0,0c6.211,1.147,10.316,7.113,9.169,13.324l-0.215,1.163
					c-1.266,6.854-7.849,11.384-14.703,10.118l-12.875-2.378c-3.855-0.712-7.558,1.836-8.27,5.691l0,0
					c-0.712,3.855,1.836,7.558,5.691,8.27l25.518,4.714c3.898,0.72,7.642-1.856,8.362-5.754l0,0
					c0.372-2.013,2.306-3.344,4.319-2.972l0,0c2.013,0.372,3.947-0.959,4.319-2.972l5.846-31.646
					C296.167,162.133,295.402,161.022,294.246,160.809z"/>
				<path style="fill:#C091E3;" d="M262.014,134.946c-0.592,3.204-3.669,5.322-6.873,4.73c-3.204-0.592-5.322-3.669-4.73-6.873
					c0.592-3.204,3.669-5.321,6.873-4.73C260.488,128.665,262.606,131.742,262.014,134.946z"/>
				<path style="fill:#C091E3;" d="M224.71,185.421l-0.656,3.549c-0.273,1.478,0.704,2.897,2.182,3.17l0,0
					c1.478,0.273,2.455,1.692,2.182,3.17l-0.838,4.537c-0.273,1.478,0.704,2.897,2.182,3.17h0c1.478,0.273,2.897-0.704,3.17-2.182
					l2.482-13.438c0.273-1.478-0.704-2.897-2.182-3.17l-5.352-0.989C226.402,182.966,224.982,183.943,224.71,185.421z"/>
			</g>
			<g>
				<path style="fill:#AB7CCF;" d="M290.107,194.935l5.846-31.646c0.214-1.157-0.551-2.267-1.707-2.481
					c-1.157-0.214-1.921-1.325-1.707-2.481l1.003-5.429c0.704-3.813-1.815-7.474-5.628-8.178l-14.737-2.722
					c-3.898-0.72-7.642,1.856-8.362,5.754l-1.777,9.618c-0.72,3.898,1.856,7.642,5.754,8.362c6.211,1.147,10.316,7.113,9.169,13.324
					l-0.215,1.163c-1.266,6.854-7.849,11.384-14.703,10.118l-12.875-2.378c-0.415-0.077-0.828-0.109-1.237-0.112l-2.537,13.736
					c0.383,0.143,0.78,0.26,1.195,0.337l25.518,4.714c3.898,0.72,7.642-1.856,8.362-5.754c0.372-2.013,2.306-3.344,4.319-2.972
					C287.802,198.279,289.736,196.949,290.107,194.935z"/>
				<path style="fill:#AB7CCF;" d="M257.856,139.535c2.073-0.604,3.739-2.321,4.158-4.589c0.419-2.268-0.523-4.467-2.244-5.772
					L257.856,139.535z"/>
			</g>
			<g>
				<path style="fill:#FFFFFF;" d="M208.694,153.299c-0.124-0.023-0.247-0.058-0.367-0.107c-0.969-0.391-1.437-1.495-1.045-2.464
					c6.909-17.084,23.256-28.965,41.645-30.272c1.04-0.071,1.948,0.712,2.023,1.755c0.073,1.043-0.712,1.949-1.755,2.023
					c-16.957,1.203-32.033,12.161-38.405,27.913C210.448,152.995,209.56,153.459,208.694,153.299z"/>
			</g>
		</g>
		<g>
			<g>
				<path style="fill:#C091E3;" d="M153.315,166.673c-2.493,4.36-3.038,9.953-1.452,14.89c0.494,1.539,1.196,3.118,0.944,4.698
					c-0.287,1.801-1.765,3.108-3.338,3.831c-1.573,0.723-3.305,1.02-4.893,1.706c-3.936,1.701-6.717,5.941-6.878,10.482
					c-0.16,4.541,2.309,9.159,6.105,11.418c1.896,1.128,4.029,1.681,6.036,2.553c2.007,0.872,4.002,2.188,4.967,4.249
					c1.109,2.369,0.615,5.176-0.238,7.598c-0.853,2.422-2.05,4.75-2.317,7.337c-0.562,5.433,3.228,10.646,7.824,13.328
					c4.596,2.681,9.894,3.419,15.024,4.356s11.395,1.991,15.481,5.497l-25.303-100.413
					C160.463,158.908,155.808,162.313,153.315,166.673z"/>
				<path style="fill:#DDADFF;" d="M179.821,159.993c4.261,2.658,7.392,7.325,8.335,12.424c0.294,1.59,0.425,3.313,1.395,4.585
					c1.106,1.45,3.027,1.9,4.755,1.792c1.728-0.108,3.393-0.668,5.117-0.816c4.272-0.367,8.731,2.048,11.024,5.971
					c2.293,3.923,2.307,9.16,0.035,12.948c-1.135,1.892-2.751,3.389-4.105,5.109c-1.354,1.719-2.487,3.823-2.36,6.095
					c0.146,2.611,1.911,4.849,3.81,6.578c1.899,1.729,4.056,3.211,5.517,5.363c3.069,4.518,2.203,10.905-0.574,15.444
					c-2.777,4.539-7.092,7.699-11.166,10.955c-4.073,3.256-9.091,7.153-11.027,12.177l-25.303-100.413
					C169.847,156.543,175.56,157.336,179.821,159.993z"/>
			</g>
			<path style="fill:#FFFFFF;" d="M187.779,242.496l20.514-17.852l-21.202,15.313l-6.983-25.759l21.988-25.44l-22.437,23.784
				l-6.339-23.381l0,0l8.316-20.119l-8.718,18.634l-6.577-25.248l6.173,25.35l-16.507-12.277l16.857,13.776l5.498,23.593
				l-31.029-10.311l31.418,11.982l6.057,25.992l-25.927-3.436l26.524,6l3.303,14.172c0.66,0.406,1.29,0.851,1.872,1.35
				c0.276-0.715,0.62-1.405,1.008-2.076L187.779,242.496z"/>
		</g>
		<g>
			<g>
				<path style="fill:#C091E3;" d="M38.12,348.153c1.877,3.829,5.549,6.876,9.775,8.112c1.317,0.385,2.762,0.645,3.752,1.574
					c1.129,1.06,1.344,2.721,1.103,4.171c-0.241,1.45-0.857,2.809-1.131,4.252c-0.678,3.577,0.977,7.551,4.093,9.827
					s7.538,2.739,10.934,1.146c1.696-0.796,3.1-2.031,4.669-3.027c1.569-0.996,3.443-1.771,5.352-1.468
					c2.193,0.349,3.931,2.033,5.228,3.786c1.297,1.753,2.363,3.703,4.054,5.123c3.551,2.982,9.021,2.801,13.095,0.848
					c4.074-1.954,7.115-5.327,10.217-8.486c3.102-3.16,6.826-7.062,11.237-8.264l-82.635-30.034
					C36.066,339.43,36.243,344.324,38.12,348.153z"/>
				<path style="fill:#DDADFF;" d="M46.048,326.34c3.898-1.73,8.669-1.708,12.703,0.058c1.257,0.551,2.531,1.279,3.887,1.203
					c1.546-0.087,2.777-1.223,3.524-2.489c0.747-1.266,1.146-2.704,1.863-3.986c1.777-3.178,5.598-5.162,9.447-4.905
					c3.85,0.256,7.538,2.74,9.118,6.142c0.789,1.699,1.073,3.548,1.636,5.319c0.563,1.771,1.503,3.569,3.161,4.562
					c1.905,1.141,4.319,0.966,6.439,0.454c2.12-0.512,4.189-1.322,6.397-1.325c4.638-0.006,8.714,3.645,10.583,7.758
					c1.869,4.114,2.034,8.652,2.383,13.066c0.349,4.414,0.699,9.797,3.308,13.551l-82.635-30.034
					C38.873,331.707,42.151,328.069,46.048,326.34z"/>
			</g>
			<path style="fill:#FFFFFF;" d="M107.833,360.036l-2.78-22.922l0.666,22.196l-21.433-7.358l-7.412-27.572l6.033,27.099
				L63.454,344.8h0l-10.182-15.427l8.947,15.003l-20.88-7.401l20.76,7.733l-16.492,5.757l17.711-5.289l19.203,7.371l-22.025,16.901
				l23.386-16.379l21.156,8.12l-14.763,16.589l16.849-15.788l11.535,4.427c0.6-0.271,1.212-0.501,1.84-0.673
				c-0.371-0.534-0.693-1.104-0.979-1.697L107.833,360.036z"/>
		</g>
		<g>
			<path style="fill:#481F69;" d="M119.832,231.527c0.394,1.604,2.013,2.585,3.617,2.191c1.604-0.394,2.585-2.013,2.191-3.617
				s-2.013-2.585-3.617-2.191C120.419,228.303,119.438,229.923,119.832,231.527z"/>
			<path style="fill:#662D91;" d="M167.812,328.662l3.523,14.35c0.219,0.891-0.326,1.791-1.218,2.01
				c-0.891,0.219-1.791-0.326-2.01-1.218l-3.523-14.35L167.812,328.662z"/>
			<path style="fill:#FF9A30;" d="M121.219,124.838c17.786,28.296,31.364,85.505,34.767,100.725
				c0.471,2.106-0.832,4.197-2.928,4.712l-20.964,5.147c-2.096,0.515-4.219-0.735-4.777-2.82
				c-4.033-15.064-18.494-72.057-15.835-105.373C111.883,122.189,118.529,120.558,121.219,124.838z"/>
			<path style="fill:#662D91;" d="M136.051,156.525l-23.039,5.657c-0.351-2.816-0.663-5.615-0.924-8.376l20.903-5.132
				C134.037,151.241,135.057,153.867,136.051,156.525z"/>
			<path style="fill:#662D91;" d="M106.665,155.137l9.626-2.363l1.992,8.114l-9.222,2.264c-1.499,0.368-2.417,1.882-2.049,3.382
				l16.612,67.659c0.423,1.724-0.631,3.464-2.355,3.887l0,0c-1.724,0.423-3.464-0.631-3.887-2.354l-17.171-69.936
				C99.053,161.066,101.942,156.296,106.665,155.137z"/>
			<path style="fill:#FF9A30;" d="M142.576,232.848l10.538-2.587l18.054,73.532c2.637,10.738,2.882,21.925,0.719,32.769
				l-7.256,1.781c-6.939-8.609-11.902-18.637-14.539-29.376l-18.054-73.532L142.576,232.848z"/>
			
				<rect x="148.496" y="298.667" transform="matrix(-0.9712 0.2384 -0.2384 -0.9712 385.9034 555.6218)" style="fill:#FFBB45;" width="21.701" height="4.968"/>
			
				<rect x="132.318" y="232.776" transform="matrix(-0.9712 0.2384 -0.2384 -0.9712 338.3034 429.5982)" style="fill:#C77825;" width="21.701" height="4.968"/>
			<g>
				<path style="fill:#FFBB45;" d="M151.02,228.418c1.432-0.352,2.318-1.791,1.979-3.23c-11.985-51.025-17.933-64.726-18.181-65.284
					c-0.602-1.359-2.195-1.98-3.552-1.371c-1.359,0.602-1.972,2.19-1.373,3.548l0,0c0.059,0.135,6.053,14.05,17.863,64.337
					c0.34,1.447,1.789,2.347,3.236,2.006C151.002,228.422,151.011,228.42,151.02,228.418z"/>
			</g>
			<g>
				<path style="fill:#FFBB45;" d="M163.444,294.547c1.444-0.355,2.327-1.813,1.973-3.257l-12.766-51.994
					c-0.355-1.444-1.813-2.327-3.257-1.973c-1.444,0.354-2.327,1.813-1.973,3.257l12.766,51.994
					C160.542,294.019,162.001,294.902,163.444,294.547z"/>
			</g>
		</g>
		<g>
			<path style="fill:#E0422D;" d="M78.553,224.265l56.425,119.05c1.791,3.779,6.306,5.39,10.085,3.599l7.698-3.648
				c3.779-1.791,5.39-6.306,3.599-10.085l-56.425-119.05L78.553,224.265z"/>
			<path style="fill:#FFEDCC;" d="M131.709,336.419l3.269,6.896c1.791,3.779,6.306,5.39,10.085,3.599l7.698-3.648
				c3.779-1.791,5.39-6.306,3.599-10.085l-3.269-6.896L131.709,336.419z"/>
			<polygon style="fill:#FFEDCC;" points="70.445,179.533 78.553,224.265 89.244,219.198 99.936,214.131 			"/>
			<polygon style="fill:#662D91;" points="70.445,179.533 73.068,194.002 79.984,190.724 			"/>
			
				<rect x="129.028" y="324.502" transform="matrix(0.9036 -0.4283 0.4283 0.9036 -126.9475 91.9424)" style="fill:#662D91;" width="23.663" height="7.197"/>
			
				<rect x="106.738" y="220.593" transform="matrix(0.9036 -0.4283 0.4283 0.9036 -106.9042 73.5932)" style="fill:#FF5B42;" width="6.732" height="107.584"/>
		</g>
		<g>
			<g>
				<path style="fill:#FF9A30;" d="M450.503,282.017c-4.111-0.757-8.655,0.355-12.096,2.961c-1.073,0.812-2.12,1.798-3.43,2.036
					c-1.494,0.271-2.927-0.53-3.929-1.566c-1.001-1.036-1.711-2.315-2.688-3.373c-2.421-2.623-6.517-3.64-10.128-2.515
					c-3.611,1.125-6.558,4.337-7.287,7.941c-0.364,1.8-0.211,3.627-0.343,5.444c-0.132,1.817-0.616,3.746-1.969,5.072
					c-1.555,1.523-3.896,1.909-6.034,1.906c-2.138-0.003-4.296-0.302-6.401,0.201c-4.422,1.055-7.473,5.468-8.313,9.817
					c-0.84,4.349,0.04,8.713,0.717,13.001c0.677,4.287,1.575,9.499-0.053,13.674l71.901-47.536
					C458.572,285.492,454.615,282.774,450.503,282.017z"/>
				<path style="fill:#FFBB45;" d="M463.052,300.997c-0.914,4.079-3.717,7.824-7.463,9.969c-1.168,0.669-2.485,1.246-3.217,2.359
					c-0.834,1.269-0.659,2.901-0.098,4.228c0.561,1.327,1.46,2.481,2.051,3.794c1.465,3.254,0.796,7.422-1.653,10.304
					c-2.45,2.882-6.559,4.336-10.16,3.594c-1.799-0.37-3.42-1.227-5.144-1.817c-1.723-0.59-3.688-0.901-5.438-0.174
					c-2.011,0.834-3.282,2.837-4.117,4.805c-0.835,1.968-1.405,4.07-2.692,5.811c-2.703,3.656-7.958,4.734-12.289,3.804
					c-4.33-0.93-8.001-3.45-11.681-5.752c-3.68-2.302-8.123-5.17-12.602-5.307l71.901-47.536
					C463.014,292.212,463.965,296.917,463.052,300.997z"/>
			</g>
			<path style="fill:#FFFFFF;" d="M400.441,329.975l19.674,11.195l-17.868-12.435l18.309-12.581l26.04,10.263l-24.862-11.072
				l16.619-11.42l0,0l18.093,0.989l-17.038-1.715l18.02-12.121l-18.211,11.832l5.096-16.348l-6.177,17.035l-17.017,10.818
				l-0.449-27.212l-0.757,27.979l-18.747,11.918l-4.443-21.311l2.594,22.487l-10.222,6.498c-0.137,0.631-0.313,1.248-0.545,1.842
				c0.638,0.02,1.274,0.1,1.908,0.22L400.441,329.975z"/>
		</g>
		<g>
			<g>
				<path style="fill:#FF5B42;" d="M433.05,206.747c-4.69,0.358-9.314,2.874-12.308,6.698c-0.933,1.192-1.79,2.566-3.147,3.201
					c-1.548,0.724-3.337,0.264-4.724-0.575c-1.387-0.839-2.527-2.027-3.894-2.897c-3.387-2.158-8.136-2.087-11.741,0.175
					c-3.605,2.262-5.889,6.603-5.645,10.733c0.121,2.063,0.814,4.007,1.192,6.022c0.379,2.014,0.407,4.252-0.685,6.083
					c-1.254,2.104-3.69,3.197-6.017,3.808c-2.326,0.611-4.76,0.906-6.906,2.058c-4.508,2.419-6.559,8.097-6.223,13.07
					c0.336,4.973,2.548,9.468,4.517,13.938c1.969,4.47,4.444,9.882,3.872,14.892l64.561-72.382
					C442.826,208.209,437.74,206.389,433.05,206.747z"/>
				<path style="fill:#E0422D;" d="M452.157,223.789c0.178,4.701-1.795,9.58-5.253,12.991c-1.078,1.063-2.345,2.07-2.822,3.491
					c-0.543,1.62,0.117,3.346,1.109,4.628s2.301,2.28,3.322,3.539c2.529,3.119,3,7.846,1.163,11.685
					c-1.837,3.839-5.89,6.602-10.021,6.831c-2.063,0.114-4.074-0.352-6.118-0.499c-2.045-0.147-4.271,0.08-5.966,1.373
					c-1.948,1.486-2.756,4.03-3.098,6.411c-0.343,2.381-0.359,4.832-1.259,7.096c-1.89,4.754-7.298,7.438-12.276,7.67
					c-4.978,0.232-9.696-1.454-14.361-2.901s-10.323-3.29-15.236-2.152l64.561-72.382
					C449.591,214.243,451.978,219.089,452.157,223.789z"/>
			</g>
			<path style="fill:#FFFFFF;" d="M392.369,273.311l24.621,6.525l-23.014-8.393l16.303-18.95l31.279,3.681l-30.231-4.9
				l14.798-17.201l0,0l19.969-4.124l-19.029,3.032l16.12-18.367l-16.412,18.107l0.845-19.25l-1.824,20.309l-15.404,16.66
				l-8.31-29.476l7.218,30.657l-16.97,18.354l-10.959-21.908l9.285,23.718l-9.253,10.008c0.032,0.725,0.018,1.447-0.063,2.16
				c0.699-0.162,1.415-0.258,2.139-0.309L392.369,273.311z"/>
		</g>
		<g>
			<g>
				<path style="fill:#A27BBF;" d="M316.504,233.637c0,0,22.933,7.303,12.237,34.435c7.792-7.089,14.991-27.543,14.991-27.543
					L316.504,233.637z"/>
				<path style="fill:#A27BBF;" d="M365.165,136.318l14.311,5.194c0,0,30.744,27.361,24.975,71.548
					c-7.285,55.797-35.139,74.605-35.139,74.605h-47.727l17.67-48.382h17.788c5.832,0,11.301-2.941,14.41-7.876
					c3.729-5.918,7.742-15.053,7.786-26.998c0.027-7.299-4.543-13.829-11.426-16.257l-26.575-9.376L365.165,136.318z"/>
				<g>
					
						<rect x="338.291" y="80.701" transform="matrix(0.9173 0.3981 -0.3981 0.9173 85.3817 -126.5311)" style="fill:#77CCFE;" width="18.214" height="123.292"/>
					
						<rect x="322.482" y="170.909" transform="matrix(0.9173 0.3981 -0.3981 0.9173 98.5773 -117.2266)" style="fill:#43A7E6;" width="18.214" height="15.734"/>
					
						<rect x="349.833" y="107.883" transform="matrix(0.9173 0.3981 -0.3981 0.9173 75.7475 -133.3243)" style="fill:#43A7E6;" width="18.214" height="15.734"/>
					
						<rect x="330.588" y="113.798" transform="matrix(0.9173 0.3981 -0.3981 0.9173 87.8112 -124.8178)" style="fill:#77CCFE;" width="27.797" height="70.513"/>
					
						<rect x="335.124" y="116.004" transform="matrix(0.9173 0.3981 -0.3981 0.9173 86.475 -122.9227)" style="fill:#9BE5FE;" width="8.26" height="61.559"/>
				</g>
				
					<ellipse transform="matrix(0.4392 -0.8984 0.8984 0.4392 69.8138 406.3697)" style="fill:#662D91;" cx="360.415" cy="147.263" rx="11.932" ry="11.932"/>
				<path style="fill:#FFFFFF;" d="M365.622,149.523c-1.248,2.876-4.591,4.196-7.467,2.948c-2.876-1.248-4.196-4.591-2.948-7.467
					c1.248-2.876,4.591-4.196,7.467-2.948C365.551,143.304,366.87,146.647,365.622,149.523z"/>
				<path style="fill:#C091E3;" d="M359.162,245.751l41.914,41.914h-57.344v-35.523C343.732,244.09,353.468,240.057,359.162,245.751
					z"/>
				<path style="fill:#662D91;" d="M358.958,252.519c0,3.346-2.713,6.059-6.059,6.059c-3.346,0-6.059-2.713-6.059-6.059
					c0-3.346,2.713-6.059,6.059-6.059C356.245,246.46,358.958,249.173,358.958,252.519z"/>
				<path style="fill:#FFFFFF;" d="M355.644,252.519c0,1.516-1.229,2.745-2.745,2.745c-1.516,0-2.745-1.229-2.745-2.745
					c0-1.516,1.229-2.745,2.745-2.745C354.415,249.773,355.644,251.002,355.644,252.519z"/>
				<path style="fill:#662D91;" d="M409.761,287.665H292.834c-5.829,0-10.555,4.726-10.555,10.555
					c0,5.829,4.726,10.555,10.555,10.555h116.927c5.829,0,10.555-4.726,10.555-10.555
					C420.316,292.391,415.59,287.665,409.761,287.665z"/>
				<path style="fill:#662D91;" d="M342.263,230.453l-46.274-20.081c-3.338-1.448-7.217,0.083-8.666,3.421
					c-1.448,3.338,0.083,7.217,3.421,8.666l46.274,20.081c3.338,1.448,7.217-0.083,8.666-3.421l0,0
					C347.132,235.781,345.601,231.901,342.263,230.453z"/>
			</g>
			<rect x="332.08" y="287.665" style="fill:#481F69;" width="10.569" height="21.11"/>
		</g>
		<g>
			<g>
				<path style="fill:#662D91;" d="M222.19,401.703H118.464c-4.832,0-8.75-3.918-8.75-8.75V268.868c0-4.832,3.918-8.75,8.75-8.75
					H222.19V401.703z"/>
				<path style="fill:#662D91;" d="M222.19,401.703h103.726c4.833,0,8.75-3.918,8.75-8.75V268.868c0-4.832-3.917-8.75-8.75-8.75
					H222.19V401.703z"/>
				<ellipse style="fill:#662D91;" cx="222.19" cy="401.703" rx="7.235" ry="2.839"/>
			</g>
			<g>
				<path style="fill:#FAB45A;" d="M124.258,385.273c35.795-20.524,97.932,6.088,97.932,6.088v5.315l-105.58-3.73L124.258,385.273z"
					/>
				<path style="fill:#FAB45A;" d="M320.122,385.986c-35.795-20.524-97.932,5.375-97.932,5.375v5.315l105.58-3.73L320.122,385.986z"
					/>
				<path style="fill:#FFEDCC;" d="M222.19,391.361c-32.927-9.273-65.018-11.265-97.932-6.088c0-44.513,0-89.026,0-133.54
					c32.914-5.178,65.005-3.185,97.932,6.088C222.19,302.335,222.19,346.848,222.19,391.361z"/>
				<g>
					<g>
						<path style="fill:#A27BBF;" d="M170.023,313.131c-11.26-0.331-22.24,0.036-33.372,1.114c0-18.089,0-36.177,0-54.265
							c11.132-1.078,22.111-1.445,33.372-1.114C170.023,276.954,170.023,295.042,170.023,313.131z"/>
						<g>
							<path style="fill:#A27BBF;" d="M210.641,377.077c-25.189-5.646-49.647-7.166-74.834-4.652
								c-0.699,0.083-1.265-0.415-1.265-1.117c0-0.702,0.566-1.343,1.265-1.426c25.188-2.514,49.645-0.994,74.834,4.652
								c0.699,0.17,1.265,0.881,1.265,1.584C211.906,376.819,211.34,377.247,210.641,377.077z"/>
						</g>
						<g>
							<path style="fill:#A27BBF;" d="M210.641,367.114c-25.189-5.646-49.647-7.166-74.834-4.652
								c-0.699,0.083-1.265-0.415-1.265-1.117s0.566-1.343,1.265-1.427c25.188-2.514,49.645-0.994,74.834,4.652
								c0.699,0.17,1.265,0.881,1.265,1.584C211.906,366.856,211.34,367.284,210.641,367.114z"/>
						</g>
						<g>
							<path style="fill:#A27BBF;" d="M210.641,357.151c-25.189-5.646-49.647-7.166-74.834-4.652
								c-0.699,0.083-1.265-0.415-1.265-1.117c0-0.702,0.566-1.343,1.265-1.426c25.188-2.514,49.645-0.994,74.834,4.652
								c0.699,0.17,1.265,0.881,1.265,1.584C211.906,356.893,211.34,357.321,210.641,357.151z"/>
						</g>
						<g>
							<path style="fill:#A27BBF;" d="M210.641,347.189c-25.189-5.646-49.647-7.166-74.834-4.652
								c-0.699,0.083-1.265-0.415-1.265-1.117c0-0.702,0.566-1.343,1.265-1.426c25.188-2.514,49.645-0.994,74.834,4.652
								c0.699,0.17,1.265,0.881,1.265,1.584C211.906,346.931,211.34,347.359,210.641,347.189z"/>
						</g>
						<g>
							<path style="fill:#A27BBF;" d="M210.641,337.225c-25.189-5.646-49.647-7.166-74.834-4.652
								c-0.699,0.083-1.265-0.415-1.265-1.117c0-0.702,0.566-1.343,1.265-1.427c25.188-2.514,49.645-0.994,74.834,4.652
								c0.699,0.17,1.265,0.881,1.265,1.584S211.34,337.396,210.641,337.225z"/>
						</g>
						<g>
							<path style="fill:#A27BBF;" d="M210.641,327.263c-25.189-5.646-49.647-7.166-74.834-4.652
								c-0.699,0.083-1.265-0.415-1.265-1.117c0-0.702,0.566-1.343,1.265-1.426c25.188-2.514,49.645-0.994,74.834,4.652
								c0.699,0.17,1.265,0.881,1.265,1.584C211.906,327.005,211.34,327.433,210.641,327.263z"/>
						</g>
						<g>
							<path style="fill:#A27BBF;" d="M210.641,317.3c-10.537-2.621-21.268-4.291-31.975-5.281
								c-0.707-0.062-1.281-0.678-1.281-1.381c0-0.702,0.573-1.225,1.281-1.163c10.706,0.991,21.438,2.661,31.975,5.281
								c0.699,0.17,1.265,0.881,1.265,1.584S211.34,317.47,210.641,317.3z"/>
						</g>
						<g>
							<path style="fill:#A27BBF;" d="M210.641,307.337c-10.537-2.621-21.268-4.291-31.975-5.281
								c-0.707-0.062-1.281-0.678-1.281-1.381c0-0.702,0.573-1.225,1.281-1.163c10.706,0.991,21.438,2.661,31.975,5.281
								c0.699,0.17,1.265,0.881,1.265,1.584C211.906,307.08,211.34,307.507,210.641,307.337z"/>
						</g>
						<g>
							<path style="fill:#A27BBF;" d="M210.641,297.375c-10.537-2.621-21.268-4.291-31.975-5.281
								c-0.707-0.062-1.281-0.678-1.281-1.381c0-0.702,0.573-1.225,1.281-1.163c10.706,0.99,21.438,2.661,31.975,5.281
								c0.699,0.17,1.265,0.881,1.265,1.584C211.906,297.117,211.34,297.545,210.641,297.375z"/>
						</g>
						<g>
							<path style="fill:#A27BBF;" d="M210.641,287.411c-10.537-2.621-21.268-4.291-31.975-5.281
								c-0.707-0.062-1.281-0.678-1.281-1.381s0.573-1.225,1.281-1.163c10.706,0.991,21.438,2.661,31.975,5.281
								c0.699,0.17,1.265,0.881,1.265,1.584C211.906,287.154,211.34,287.582,210.641,287.411z"/>
						</g>
						<g>
							<path style="fill:#A27BBF;" d="M210.641,277.449c-10.537-2.621-21.268-4.291-31.975-5.281
								c-0.707-0.062-1.281-0.678-1.281-1.381c0-0.702,0.573-1.225,1.281-1.163c10.706,0.991,21.438,2.661,31.975,5.281
								c0.699,0.17,1.265,0.881,1.265,1.584C211.906,277.191,211.34,277.619,210.641,277.449z"/>
						</g>
						<g>
							<path style="fill:#A27BBF;" d="M210.641,267.486c-10.537-2.621-21.268-4.291-31.975-5.281
								c-0.707-0.062-1.281-0.678-1.281-1.381c0-0.702,0.573-1.225,1.281-1.163c10.706,0.991,21.438,2.661,31.975,5.281
								c0.699,0.17,1.265,0.881,1.265,1.584C211.906,267.229,211.34,267.656,210.641,267.486z"/>
						</g>
					</g>
				</g>
				<path style="fill:#FFEDCC;" d="M320.122,385.986c-32.927-5.419-65.018-3.655-97.932,5.375c0-44.513,0-89.027,0-133.54
					c32.914-9.03,65.005-10.794,97.932-5.375C320.122,296.96,320.122,341.473,320.122,385.986z"/>
				<g>
					<g>
						<g>
							<g>
								<path style="fill:#A27BBF;" d="M270.516,371.779c-12.429,0.96-24.496,2.726-36.777,5.382
									c-0.699,0.165-1.265-0.267-1.265-0.969c0-0.702,0.566-1.41,1.265-1.575c12.281-2.656,24.348-4.422,36.777-5.382
									c0.707-0.041,1.281,0.499,1.281,1.202C271.797,371.139,271.223,371.738,270.516,371.779z"/>
							</g>
							<g>
								<path style="fill:#A27BBF;" d="M270.516,361.816c-12.429,0.96-24.496,2.726-36.777,5.382
									c-0.699,0.165-1.265-0.267-1.265-0.969c0-0.702,0.566-1.409,1.265-1.575c12.281-2.656,24.348-4.422,36.777-5.382
									c0.707-0.041,1.281,0.499,1.281,1.202C271.797,361.176,271.223,361.775,270.516,361.816z"/>
							</g>
							<g>
								<path style="fill:#A27BBF;" d="M270.516,351.853c-12.429,0.96-24.496,2.726-36.777,5.382
									c-0.699,0.165-1.265-0.267-1.265-0.969c0-0.702,0.566-1.41,1.265-1.574c12.281-2.656,24.348-4.422,36.777-5.382
									c0.707-0.041,1.281,0.499,1.281,1.202C271.797,351.213,271.223,351.812,270.516,351.853z"/>
							</g>
							<g>
								<path style="fill:#A27BBF;" d="M270.516,341.891c-12.429,0.96-24.496,2.726-36.777,5.382
									c-0.699,0.165-1.265-0.267-1.265-0.969c0-0.702,0.566-1.41,1.265-1.574c12.281-2.656,24.348-4.422,36.777-5.382
									c0.707-0.041,1.281,0.499,1.281,1.202C271.797,341.251,271.223,341.85,270.516,341.891z"/>
							</g>
							<g>
								<path style="fill:#A27BBF;" d="M308.574,333.202c-25.189-2.698-49.647-1.355-74.835,4.107
									c-0.699,0.165-1.265-0.267-1.265-0.969c0-0.702,0.566-1.41,1.265-1.575c25.188-5.462,49.646-6.805,74.835-4.107
									c0.699,0.088,1.265,0.733,1.265,1.436C309.838,332.797,309.272,333.291,308.574,333.202z"/>
							</g>
							<g>
								<path style="fill:#A27BBF;" d="M308.574,323.24c-25.189-2.697-49.647-1.355-74.835,4.107
									c-0.699,0.165-1.265-0.267-1.265-0.969s0.566-1.41,1.265-1.575c25.188-5.462,49.646-6.805,74.835-4.107
									c0.699,0.088,1.265,0.733,1.265,1.436C309.838,322.834,309.272,323.328,308.574,323.24z"/>
							</g>
							<path style="fill:#A27BBF;" d="M278.946,339.028c10.349-0.139,20.714,0.354,30.892,1.758c0,10.811,0,21.621,0,32.432
								c-10.178-1.403-20.543-1.897-30.892-1.757C278.946,360.65,278.946,349.839,278.946,339.028z"/>
						</g>
						<g>
							<g>
								<path style="fill:#A27BBF;" d="M308.574,313.277c-25.189-2.698-49.647-1.355-74.835,4.107
									c-0.699,0.165-1.265-0.267-1.265-0.969s0.566-1.409,1.265-1.575c25.188-5.462,49.646-6.805,74.835-4.107
									c0.699,0.088,1.265,0.733,1.265,1.436C309.838,312.871,309.272,313.365,308.574,313.277z"/>
							</g>
							<g>
								<path style="fill:#A27BBF;" d="M308.574,303.314c-25.189-2.698-49.647-1.355-74.835,4.107
									c-0.699,0.165-1.265-0.267-1.265-0.969c0-0.702,0.566-1.41,1.265-1.575c25.188-5.462,49.646-6.805,74.835-4.107
									c0.699,0.088,1.265,0.733,1.265,1.436C309.838,302.908,309.272,303.402,308.574,303.314z"/>
							</g>
							<g>
								<path style="fill:#A27BBF;" d="M308.574,293.351c-12.309-1.556-24.901-2.061-37.417-1.311
									c-0.707,0.039-1.281-0.495-1.281-1.198c0-0.702,0.574-1.307,1.281-1.346c12.516-0.75,25.108-0.245,37.417,1.311
									c0.699,0.088,1.265,0.733,1.265,1.436S309.272,293.439,308.574,293.351z"/>
							</g>
							<g>
								<path style="fill:#A27BBF;" d="M308.574,283.388c-12.309-1.556-24.901-2.061-37.417-1.311
									c-0.707,0.039-1.281-0.495-1.281-1.198s0.574-1.307,1.281-1.346c12.516-0.75,25.108-0.245,37.417,1.311
									c0.699,0.088,1.265,0.733,1.265,1.436C309.838,282.983,309.272,283.477,308.574,283.388z"/>
							</g>
							<g>
								<path style="fill:#A27BBF;" d="M308.574,273.425c-12.309-1.556-24.901-2.061-37.417-1.311
									c-0.707,0.039-1.281-0.495-1.281-1.198s0.574-1.307,1.281-1.346c12.516-0.75,25.108-0.245,37.417,1.311
									c0.699,0.088,1.265,0.733,1.265,1.436C309.838,273.02,309.272,273.514,308.574,273.425z"/>
							</g>
							<g>
								<path style="fill:#A27BBF;" d="M308.574,263.463c-12.309-1.556-24.901-2.061-37.417-1.311
									c-0.707,0.039-1.281-0.495-1.281-1.198c0-0.702,0.574-1.307,1.281-1.346c12.516-0.75,25.108-0.245,37.417,1.311
									c0.699,0.088,1.265,0.733,1.265,1.436C309.838,263.057,309.272,263.551,308.574,263.463z"/>
							</g>
							<path style="fill:#A27BBF;" d="M264.06,292.55c-10.592,0.887-21.17,2.732-31.585,5.211c0-10.811,0-21.622,0-32.432
								c10.416-2.479,20.994-4.324,31.586-5.211C264.06,270.929,264.06,281.739,264.06,292.55z"/>
						</g>
					</g>
				</g>
				<path style="fill:#EBD8B7;" d="M229.425,255.955c-2.408,0.585-4.819,1.203-7.235,1.866c0,44.513,0,89.026,0,133.54
					c2.416-0.663,4.827-1.282,7.235-1.866V255.955z"/>
				<polygon style="fill:#FAB45A;" points="320.122,252.447 327.77,263.59 327.77,392.945 320.122,385.986 				"/>
				<polygon style="fill:#EBD8B7;" points="124.258,252.447 116.611,263.59 116.611,392.945 124.258,385.273 				"/>
			</g>
		</g>
		<g>
			
				<rect x="232.337" y="305.471" transform="matrix(0.8366 -0.5478 0.5478 0.8366 -132.3354 180.086)" style="fill:#FF9A30;" width="6.728" height="12.798"/>
			
				<ellipse transform="matrix(0.0493 -0.9988 0.9988 0.0493 -73.0591 470.7496)" style="fill:#662D91;" cx="210.739" cy="273.75" rx="41.817" ry="41.817"/>
			
				<ellipse transform="matrix(0.646 -0.7633 0.7633 0.646 -134.3613 257.7522)" style="fill:#BFEDFE;" cx="210.739" cy="273.75" rx="34.634" ry="34.634"/>
			<path style="fill:#9BE5FE;" d="M239.713,254.777c-10.479-16.002-31.946-20.479-47.948-10.001l37.947,57.949
				C245.714,292.246,250.192,270.779,239.713,254.777z"/>
			<path style="fill:#77CCFE;" d="M195.801,250.938c14.961-9.797,34.697-6.518,45.765,7.028c-0.556-1.083-1.171-2.148-1.853-3.189
				c-10.479-16.002-31.946-20.479-47.948-10.001c-16.002,10.479-20.48,31.946-10.001,47.948c0.682,1.041,1.412,2.031,2.182,2.973
				C175.956,280.136,180.84,260.735,195.801,250.938z"/>
			<path style="fill:#5CAFE0;" d="M241.566,257.966c-0.273-0.532-0.562-1.06-0.865-1.583c-0.006-0.009-0.01-0.019-0.016-0.029
				c-0.308-0.531-0.632-1.057-0.972-1.577c-10.479-16.002-31.946-20.479-47.948-10.001l4.035,6.162
				C210.762,241.141,230.497,244.42,241.566,257.966z"/>
			<path style="fill:#662D91;" d="M240.54,313.653l-5.14,3.366c-1.082,0.708-1.419,2.14-0.767,3.257l26.615,45.604
				c0.701,1.201,2.266,1.57,3.429,0.808l9.687-6.343c1.164-0.762,1.451-2.343,0.63-3.466l-31.162-42.627
				C243.069,313.208,241.622,312.945,240.54,313.653z"/>
			<g>
				<path style="fill:#FFFFFF;" d="M227.477,299.311c-14.094,9.229-33.069,5.271-42.299-8.823c-0.298-0.455-0.171-1.065,0.284-1.363
					s1.065-0.171,1.363,0.284c8.635,13.186,26.387,16.889,39.573,8.254c0.455-0.298,1.065-0.171,1.363,0.284
					C228.059,298.403,227.932,299.013,227.477,299.311z"/>
			</g>
			<path style="fill:#A656E3;" d="M237.309,320.565l24.488,41.574c0.561,0.953,1.806,1.244,2.732,0.638l0,0
				c0.885-0.579,1.142-1.761,0.577-2.656l-25.752-40.803c-0.357-0.566-1.109-0.729-1.668-0.362l0,0
				C237.15,319.306,236.985,320.014,237.309,320.565z"/>
		</g>
		<g>
			
				<rect x="74.143" y="346.078" transform="matrix(0.9856 -0.1693 0.1693 0.9856 -60.5991 23.881)" style="fill:#FF9A30;" width="71.143" height="42.311"/>
			<g>
				<g>
					<polygon style="fill:#C77825;" points="148.354,382.06 120.227,360.944 122.211,359.396 					"/>
					<polygon style="fill:#C77825;" points="78.239,394.106 97.706,364.813 95.318,364.016 					"/>
				</g>
			</g>
			<path style="fill:#FFBB45;" d="M106.132,346.383l-35.058,6.023l0.982,5.718l34.775,15.897c2.65,1.211,5.771,0.675,7.865-1.351
				l27.475-26.592l-0.982-5.718L106.132,346.383z"/>
		</g>
		<g>
			<path style="fill:#FFEDCC;" d="M406.603,300.865H349.47c-3.767,0-6.821,3.054-6.821,6.821v87.195
				c0,3.767,3.054,6.821,6.821,6.821h57.133c3.767,0,6.821-3.054,6.821-6.821v-87.195
				C413.424,303.919,410.37,300.865,406.603,300.865z"/>
			<g>
				<path style="fill:#FF9A30;" d="M351.037,295.185L351.037,295.185c-1.195,0-2.163,0.969-2.163,2.164v10.415
					c0,1.195,0.969,2.163,2.163,2.163l0,0c1.195,0,2.164-0.969,2.164-2.163v-10.415C353.2,296.154,352.232,295.185,351.037,295.185z
					"/>
				<path style="fill:#FF9A30;" d="M361.837,295.185L361.837,295.185c-1.195,0-2.164,0.969-2.164,2.164v10.415
					c0,1.195,0.969,2.163,2.164,2.163l0,0c1.195,0,2.163-0.969,2.163-2.163v-10.415C364,296.154,363.031,295.185,361.837,295.185z"
					/>
				<path style="fill:#FF9A30;" d="M372.637,295.185L372.637,295.185c-1.195,0-2.163,0.969-2.163,2.164v10.415
					c0,1.195,0.969,2.163,2.163,2.163l0,0c1.195,0,2.163-0.969,2.163-2.163v-10.415C374.8,296.154,373.831,295.185,372.637,295.185z
					"/>
				<path style="fill:#FF9A30;" d="M383.437,295.185L383.437,295.185c-1.195,0-2.163,0.969-2.163,2.164v10.415
					c0,1.195,0.969,2.163,2.163,2.163h0c1.195,0,2.163-0.969,2.163-2.163v-10.415C385.6,296.154,384.631,295.185,383.437,295.185z"
					/>
				<path style="fill:#FF9A30;" d="M394.236,295.185L394.236,295.185c-1.195,0-2.163,0.969-2.163,2.164v10.415
					c0,1.195,0.969,2.163,2.163,2.163l0,0c1.195,0,2.163-0.969,2.163-2.163v-10.415C396.4,296.154,395.431,295.185,394.236,295.185z
					"/>
				<path style="fill:#FF9A30;" d="M405.036,295.185L405.036,295.185c-1.195,0-2.164,0.969-2.164,2.164v10.415
					c0,1.195,0.969,2.163,2.163,2.163h0c1.195,0,2.163-0.969,2.163-2.163v-10.415C407.2,296.154,406.231,295.185,405.036,295.185z"
					/>
			</g>
			<g>
				<path style="fill:#A27BBF;" d="M405.495,318.517h-54.916c-0.942,0-1.705,0.764-1.705,1.705c0,0.942,0.763,1.705,1.705,1.705
					h54.916c0.942,0,1.705-0.764,1.705-1.705C407.2,319.281,406.436,318.517,405.495,318.517z"/>
				<path style="fill:#A27BBF;" d="M405.495,326.475h-54.916c-0.942,0-1.705,0.763-1.705,1.705s0.763,1.705,1.705,1.705h54.916
					c0.942,0,1.705-0.763,1.705-1.705S406.436,326.475,405.495,326.475z"/>
				<path style="fill:#A27BBF;" d="M405.495,334.433h-54.916c-0.942,0-1.705,0.763-1.705,1.705c0,0.942,0.763,1.705,1.705,1.705
					h54.916c0.942,0,1.705-0.763,1.705-1.705C407.2,335.196,406.436,334.433,405.495,334.433z"/>
				<path style="fill:#A27BBF;" d="M405.495,342.391h-54.916c-0.942,0-1.705,0.763-1.705,1.705c0,0.942,0.763,1.705,1.705,1.705
					h54.916c0.942,0,1.705-0.764,1.705-1.705C407.2,343.154,406.436,342.391,405.495,342.391z"/>
				<path style="fill:#A27BBF;" d="M405.495,350.349h-54.916c-0.942,0-1.705,0.763-1.705,1.705s0.763,1.705,1.705,1.705h54.916
					c0.942,0,1.705-0.763,1.705-1.705S406.436,350.349,405.495,350.349z"/>
				<path style="fill:#A27BBF;" d="M405.495,358.306h-54.916c-0.942,0-1.705,0.763-1.705,1.705s0.763,1.705,1.705,1.705h54.916
					c0.942,0,1.705-0.763,1.705-1.705S406.436,358.306,405.495,358.306z"/>
				<path style="fill:#A27BBF;" d="M405.495,366.264h-54.916c-0.942,0-1.705,0.764-1.705,1.705c0,0.942,0.763,1.705,1.705,1.705
					h54.916c0.942,0,1.705-0.764,1.705-1.705C407.2,367.028,406.436,366.264,405.495,366.264z"/>
				<path style="fill:#A27BBF;" d="M405.495,374.222h-54.916c-0.942,0-1.705,0.763-1.705,1.705c0,0.942,0.763,1.705,1.705,1.705
					h54.916c0.942,0,1.705-0.763,1.705-1.705C407.2,374.986,406.436,374.222,405.495,374.222z"/>
				<path style="fill:#A27BBF;" d="M405.495,382.18h-54.916c-0.942,0-1.705,0.763-1.705,1.705s0.763,1.705,1.705,1.705h54.916
					c0.942,0,1.705-0.764,1.705-1.705S406.436,382.18,405.495,382.18z"/>
				<path style="fill:#A27BBF;" d="M405.495,390.138h-54.916c-0.942,0-1.705,0.764-1.705,1.705c0,0.942,0.763,1.705,1.705,1.705
					h54.916c0.942,0,1.705-0.764,1.705-1.705C407.2,390.901,406.436,390.138,405.495,390.138z"/>
			</g>
		</g>
		<g>
			<path style="fill:#FFFFFF;" d="M397.935,348.459l-9.37,9.37c-1.519,1.519-1.519,3.982,0,5.501l12.121,12.121l14.871-14.872
				l-12.121-12.121C401.917,346.94,399.454,346.94,397.935,348.459z"/>
			
				<rect x="390.701" y="355.895" transform="matrix(0.7071 -0.7071 0.7071 0.7071 -137.8308 389.4704)" style="fill:#FFEDCC;" width="21.031" height="10.433"/>
			<path style="fill:#E0422D;" d="M406.651,351.8l-14.746,14.746c-0.61,0.61-0.61,1.599,0,2.209l27.217,27.217
				c0.61,0.61,1.599,0.61,2.209,0l14.746-14.746c0.61-0.61,0.61-1.599,0-2.209L408.861,351.8
				C408.251,351.19,407.262,351.19,406.651,351.8z"/>
		</g>
	</g>
	<g>
		<path style="fill:#662D91;" d="M406.955,223.325c3.532,3.11,4.257,10.366,3.139,13.553c-1.048,0.407-2.354,0.18-3.352-0.337
			c-0.998-0.518-1.784-1.39-2.318-2.379c-0.816-1.512-1.06-3.323-0.675-4.997c0.385-1.674,1.397-3.196,2.791-4.199
			C406.903,224.705,406.555,223.125,406.955,223.325z"/>
		<path style="fill:#662D91;" d="M397.597,259.342c-3.193,0.144-6.526-0.219-9.26-1.875c-2.734-1.656-4.713-4.841-4.203-7.997
			c0.083-0.515,0.229-1.04,0.123-1.551c-0.094-0.452-0.374-0.839-0.597-1.243c-0.849-1.538-0.867-3.505-0.046-5.059
			c0.616-1.165,1.717-2.104,2.968-2.57c1.414-0.527,2.653-1.49,3.25-2.876c0.3-0.697,0.509-1.442,0.647-2.182
			c0.34-1.822,0.324-3.695,0.638-5.523c0.314-1.827,1.023-3.689,2.477-4.84c0.486,4.13,3.684,7.936,7.607,9.315
			c1.887,0.663,3.912,0.808,5.867,1.232c1.955,0.424,3.952,1.204,5.173,2.788c1.222,1.584,1.342,4.138-0.184,5.431
			c2.501,0.506,4.87,3.07,5.442,5.557c0.572,2.487-0.433,5.266-2.462,6.813c1.72,1.02,2.291,3.414,1.603,5.292
			c-0.688,1.878-2.383,3.246-4.233,4.007C407.69,266.004,400.294,263.672,397.597,259.342z"/>
		<path style="fill:#E09276;" d="M391.145,242.063c0,0,1.489-5.494,1.789-7.371c0.3-1.877,2.702-1.239,2.702-1.239l2.477,4.992
			c0,0-0.901,2.364,0.878,5.664c1.165,1.571-3.317,2.63-4.256,3.418c-0.938,0.788,1.367-1.359,1.367-1.359l-4.445-1.98
			L391.145,242.063z"/>
		<path style="fill:#FFB296;" d="M426.875,307.437l1.244,5.15c0,0-1.122,0.482-2.68,0.474c-1.557-0.008-2.715-0.831-2.715-0.831
			l-0.762-7.042L426.875,307.437z"/>
		<g>
			<path style="fill:#662D91;" d="M420.738,313.542c-0.18,0.425-0.364,0.867-0.344,1.328c0.026,0.624,0.421,1.172,0.868,1.609
				c0.602,0.589,1.318,1.045,2.034,1.488c1.447,0.894,2.919,1.748,4.413,2.561c1.064,0.579,2.151,1.142,3.325,1.439
				c0.704,0.178,1.539,0.227,2.07-0.27c0.514-0.481,0.536-1.311,0.285-1.969c-0.57-1.491-2.691-2.698-4.209-5.349
				c-0.484-0.845-0.287-1.544-1.201-1.879c-0.744-0.272-3.401,0.892-4.52-2.425C421.915,309.984,421.2,312.453,420.738,313.542z"/>
			<path style="fill:#EFEBFF;" d="M432.208,321.524c-1.327-0.398-2.541-1.096-3.728-1.811c-1.667-1.004-3.306-2.054-4.915-3.148
				c-0.796-0.541-1.592-1.099-2.25-1.802c-0.27-0.288-0.511-0.617-0.681-0.972c-0.14,0.348-0.257,0.707-0.241,1.078
				c0.026,0.624,0.421,1.172,0.868,1.609c0.602,0.589,1.318,1.045,2.034,1.488c1.447,0.894,2.919,1.748,4.413,2.561
				c1.064,0.579,2.151,1.142,3.325,1.439c0.702,0.177,1.532,0.225,2.063-0.266C432.795,321.675,432.492,321.609,432.208,321.524z"/>
		</g>
		<path style="fill:#FFB296;" d="M427.078,296.465l0.818,5.235c0,0-1.158,0.389-2.709,0.253c-1.551-0.136-2.638-1.05-2.638-1.05
			l-0.183-7.081L427.078,296.465z"/>
		<g>
			<path style="fill:#662D91;" d="M421.205,303.557c-0.015,0.461-0.027,0.94,0.158,1.362c0.249,0.572,0.816,0.942,1.389,1.188
				c0.774,0.332,1.606,0.5,2.434,0.654c1.672,0.312,3.353,0.579,5.04,0.798c1.201,0.157,2.418,0.29,3.62,0.144
				c0.721-0.088,1.517-0.343,1.833-0.998c0.306-0.634,0.028-1.416-0.443-1.939c-1.069-1.186-3.483-1.546-5.854-3.472
				c-0.756-0.614-0.824-1.336-1.798-1.319c-0.792,0.014-2.85,2.058-5.09-0.633C421.021,299.814,421.244,302.375,421.205,303.557z"/>
			<path style="fill:#EFEBFF;" d="M434.781,306.868c-1.381,0.107-2.765-0.107-4.13-0.346c-1.917-0.336-3.824-0.724-5.719-1.165
				c-0.938-0.218-1.881-0.451-2.748-0.87c-0.355-0.171-0.699-0.391-0.985-0.661c-0.005,0.375,0.015,0.752,0.164,1.092
				c0.249,0.572,0.816,0.942,1.389,1.188c0.774,0.332,1.606,0.5,2.434,0.654c1.672,0.312,3.353,0.578,5.04,0.799
				c1.201,0.157,2.418,0.29,3.62,0.144c0.719-0.087,1.51-0.342,1.828-0.991C435.383,306.797,435.077,306.845,434.781,306.868z"/>
		</g>
		<g>
			<path style="fill:#E09276;" d="M416.664,248.607c-0.036,0.037-6.052,5.365-13.875,7.261c0,0-5.016-13.217-9.457-12.195
				c-3.669,0.844-2.935,4.629-1.404,7.462c1.804,3.338,6.732,9.074,6.732,9.074c0.528,0.856,1.517,1.314,2.511,1.161
				c0.219-0.033,5.145-1.103,10.317-4.935c3.891-2.883,7.76-5.399,7.918-5.566L416.664,248.607z"/>
		</g>
		<path style="fill:#AB3222;" d="M397.163,278.998c0,0-14.195,8.61-2.371,8.759c13.101,0.166,19.681-0.446,19.681-0.446
			l7.618,22.544c0,0,0.63,0.963,2.504,0.739c2.634-0.314,3.077-1.655,3.077-1.655l-4.956-24.608
			c-0.486-3.387-1.91-5.962-4.224-6.507l-11.8-2.777L397.163,278.998z"/>
		<path style="fill:#FF5B42;" d="M387.501,277.322c0,0-1.464,11.934,7.572,10.09c9.682-1.977,22.659-10.493,22.659-10.493
			l3.847,21.456c0,0,0.11,0.717,3.434-0.344c3.324-1.061,3.49-2.371,3.49-2.371l-4.367-27.653c-0.856-2.218-3.135-3.546-5.487-3.198
			L387.501,277.322z"/>
		<path style="fill:#AB3222;" d="M422.077,281.683l6.23,12.745l0.195,1.232c0,0-0.166,1.31-3.49,2.371
			c-1.293,0.413-2.096,0.555-2.599,0.576C422.111,295.723,421.091,285.11,422.077,281.683z"/>
		<path style="fill:#77CCFE;" d="M387.501,277.322c2.12,1.915,12.451,3.159,16.52-6.636c-2.181-3.139-1.936-3.849-1.714-5.496
			c0.62-4.614,2.728-9.482,2.325-11.536c-0.865-4.404-4.276-8.064-5.64-9.545c-0.552,1.383-3.823,0.383-7.846-2.046
			c-4.479,3.738-0.949,9.448-1.37,22.579C389.708,266.741,387.479,274.89,387.501,277.322z"/>
		<path style="fill:#FFB296;" d="M416.512,254.013c-0.042,0.031-6.887,4.241-14.92,4.758c0,0-4.897-12.918-7.92-13.27
			c-3.653-0.425-3.546,2.95-2.527,6.005c1.201,3.6,6.255,10.584,6.255,10.584c0.373,0.934,1.134,1.367,2.139,1.389
			c0.221,0.005,3.391-0.056,9.383-2.079c4.588-1.549,9.715-4.548,9.9-4.685L416.512,254.013z"/>
		<g>
			<path style="fill:#FFB296;" d="M406.779,235.205c-1.817,3.758-4.859,6.912-6.153,6.932c-2.18,0.033-5.939-3.77-7.226-6.591
				c-1.591-3.487-1.349-7.636,0.388-10.063c2.608-3.645,7.281-4.035,11.09-1.763C408.013,225.589,409.795,228.966,406.779,235.205z"
				/>
			<path style="fill:#662D91;" d="M402.242,228.674c-0.713,1.983-1.745,3.548-3.465,4.674c0.069-1.566-0.275-2.892-0.902-3.199
				c-0.687-0.337-1.572,0.042-1.978,0.69c-0.406,0.649-0.413,1.479-0.234,2.224c0.139,0.574,0.268,1.381-0.29,1.577
				c-1.258,0.442-2.307,1.689-3.038,2.804c-0.096-1.731-0.01-2.791-0.423-3.926c-0.413-1.135-2.06-6.397,1.54-10.302
				c4.469-4.847,11.384-2.46,13.788,0.427c2.72,3.267,1.598,7.574,0.631,9.268C405.868,231.65,403.679,230.447,402.242,228.674z"/>
		</g>
		<path style="fill:#FF5B42;" d="M417.283,277.541l1.209,0.285c2.314,0.545,3.738,3.119,4.224,6.506l4.956,24.608
			c0,0-0.444,1.341-3.077,1.655c-1.874,0.224-2.504-0.739-2.504-0.739l-7.618-22.544c0,0-1.48,0.137-4.43,0.264L417.283,277.541z"/>
		<path style="fill:#662D91;" d="M395.482,232.537c0.558,1.181,0.62,2.586,0.168,3.811c-0.232,0.63-0.599,1.25-0.539,1.919
			c0.062,0.682,0.555,1.239,1.047,1.715c0.492,0.477,1.029,0.963,1.225,1.619c0.196,0.656-0.135,1.523-0.814,1.612
			c0.786,0.622,1.671,1.258,2.082,2.172c0.41,0.914,0.495,2.007,0.068,2.914c-0.427,0.907-1.419,1.564-2.415,1.449
			c-0.805-0.093-1.474-0.634-2.131-1.108c-0.657-0.475-1.431-0.922-2.23-0.788c-0.745,0.125-1.314,0.725-1.743,1.347
			c-0.873,1.265-1.408,2.761-1.532,4.293c-1.429-1.616-2.919-3.362-3.23-5.496c-0.305-2.096,0.6-4.187,1.758-5.96
			c1.159-1.773,2.593-3.372,3.558-5.258c0.508-0.993,0.885-2.064,1.549-2.96C392.966,232.92,394.374,232.414,395.482,232.537z"/>
		<path style="fill:#662D91;" d="M403.51,234.082c-0.288,0.689-0.219,1.373,0.154,1.529c0.373,0.156,0.909-0.276,1.196-0.964
			c0.288-0.689,0.219-1.373-0.154-1.529C404.334,232.962,403.798,233.394,403.51,234.082z"/>
		<g>
			<path style="fill:#662D91;" d="M402.59,239.943l0.342-0.494c-0.015-0.01-1.46-1.037-1.286-2.618l-0.597-0.066
				C400.836,238.707,402.519,239.893,402.59,239.943z"/>
		</g>
		<path style="fill:#FFB296;" d="M416.512,254.013l0.068-1.196h7.297c0,0-2.492,3.09-5.055,3.897
			C416.447,255.871,416.512,254.013,416.512,254.013z"/>
		<path style="fill:#E09276;" d="M416.664,248.601c0,0,2.824-1.571,5.06,1.455l0.462,0.665c0.129,0.185,0.092,0.438-0.083,0.58l0,0
			c-0.171,0.138-0.418,0.125-0.573-0.031l-0.378-0.378l-2.218,1.401h-1.945L416.664,248.601z"/>
		<path style="fill:#481F69;" d="M410.576,251.667h13.221l4.697-13.635c0.128-0.372,0.534-0.57,0.906-0.442
			c0.372,0.128,0.57,0.534,0.442,0.906l-5.126,14.881h-14.14c-0.472,0-0.855-0.383-0.855-0.856
			C409.72,252.05,410.103,251.667,410.576,251.667z"/>
	</g>
	<g>
		<path style="fill:#FF5B42;" d="M359.078,367.651h5.062c1.323,0,2.423,1.019,2.524,2.338l1.207,15.755
			c0.113,1.47-1.05,2.724-2.524,2.724h-6.025L359.078,367.651z"/>
		<path style="fill:#FF9A30;" d="M344.472,424.493l-0.278,5.782c-0.029,0.604-0.397,1.074-0.84,1.074h-7.867
			c-2.677,0-3.814-1.701-1.064-3.202c2.751-1.501,4.691-4.584,4.691-4.584L344.472,424.493z"/>
		<path style="fill:#FF9A30;" d="M353.005,424.493l0.278,5.782c0.029,0.604,0.397,1.074,0.84,1.074h7.867
			c2.678,0,3.815-1.701,1.064-3.202c-2.751-1.501-4.691-4.584-4.691-4.584L353.005,424.493z"/>
		<polygon style="fill:#FFB296;" points="352.255,332.384 352.255,328.931 349.149,328.931 346.043,328.931 346.043,332.384 
			342.515,333.66 349.149,340.04 355.783,333.66 		"/>
		<path style="fill:#481F69;" d="M359.28,365.983h-20.583l-0.456,58.385c0,0,0.574,0.672,3.719,0.672
			c3.145,0,2.511-0.286,2.511-0.286l4.517-47.616l4.017,47.529c0,0,0.094,0.605,3.239,0.605c3.145,0,4.002-0.626,4.002-0.626
			L359.28,365.983z"/>
		<g>
			<path style="fill:#FF9A30;" d="M359.742,334.967l-4.467-1.574c0,0-2.659,3.476-6.056,3.491c-3.397-0.016-6.141-3.475-6.141-3.475
				l-4.382,1.558c-2.928,1.201,2.224,19.049-0.378,33.374c2.499,1.852,6.739,2.66,10.901,2.662c4.162-0.002,8.403-0.81,10.901-2.662
				C357.518,354.016,362.669,336.168,359.742,334.967z"/>
		</g>
		<polygon style="fill:#E0422D;" points="342.515,333.66 364.46,375.512 362.095,377.859 339.303,334.751 		"/>
		<path style="fill:#FFB296;" d="M369.976,355.825l-3.854-10.733l-5.986,2.993l5.086,9.532l-8.077,11.165
			c-0.757,1.046-1.866,1.783-3.123,2.076l0,0c0,0,0.272,1.406,2.086,2.403c1.814,0.998,3.084,0.635,3.084,0.635l0.003-0.021
			c0.145-1.139,0.593-2.219,1.297-3.126l9.069-11.689C370.185,358.101,370.338,356.91,369.976,355.825z"/>
		<g>
			<g>
				<path style="fill:#FF9A30;" d="M359.322,334.848c0,0,3.31,0.644,4.349,2.904c1.969,4.28,4.408,10.288,4.408,10.288l-6.764,4.376
					l-1.585-1.982L359.322,334.848z"/>
			</g>
		</g>
		<path style="fill:#E09276;" d="M352.255,331.742v-2.811h-3.106h-3.106v2.811c1.105,0.864,2.232,1.368,3.106,1.368
			C350.023,333.11,351.15,332.605,352.255,331.742z"/>
		<g>
			<path style="fill:#EBA48A;" d="M342.884,322.912c0.178,1.188,0.368,2.144-0.424,2.263c-0.792,0.119-1.989-0.542-2.409-1.668
				c-0.441-1.181-0.03-2.307,0.762-2.426C341.605,320.963,342.705,321.724,342.884,322.912z"/>
			<path style="fill:#EBA48A;" d="M355.497,322.912c-0.178,1.188-0.368,2.144,0.424,2.263c0.792,0.119,1.989-0.542,2.409-1.668
				c0.441-1.181,0.03-2.307-0.762-2.426C356.776,320.963,355.675,321.724,355.497,322.912z"/>
			<path style="fill:#FFB296;" d="M349.15,312.618c-5.95,0-7.361,4.272-7.361,9.421c0,5.076,4.78,9.415,7.361,9.415
				c2.581,0,7.361-4.34,7.361-9.415C356.511,316.89,355.1,312.618,349.15,312.618z"/>
			<path style="fill:#662D91;" d="M356.401,323.378c-1.212-1.067-1.986-2.726-2.064-4.339c-3.278,0.788-7.461,0.657-10.771,0.014
				c-0.314,1.515-0.537,3.053-1.79,3.962c-0.66-1.564-1.319-3.129-1.68-4.788c-0.361-1.659-0.406-3.424,0.16-5.024
				c0.167-0.471,0.527-1.006,1.021-0.924c0.502,0.084,0.66,0.716,0.709,1.222c0.222-2.147,1.386-4.185,3.064-5.542
				c0.434-0.351,0.919-0.664,1.467-0.776c0.547-0.111,1.168,0.012,1.545,0.423c0.377,0.412,0.415,1.133-0.001,1.506
				c1.835-1.698,4.559-2.371,6.99-1.79c0.706,0.169,1.474,0.528,1.672,1.226c0.145,0.509-0.072,1.066-0.424,1.462
				c-0.352,0.395-0.824,0.66-1.286,0.918c0.833,0.305,1.488,0.967,1.925,1.739c0.437,0.772,0.65,1.655,0.739,2.538
				C357.949,317.918,357.246,320.788,356.401,323.378z"/>
			<path style="fill:#662D91;" d="M346.876,323.129c0,0.798-0.35,1.444-0.782,1.444s-0.782-0.647-0.782-1.444
				c0-0.798,0.35-1.444,0.782-1.444S346.876,322.331,346.876,323.129z"/>
			<path style="fill:#662D91;" d="M352.854,323.129c0,0.798-0.35,1.444-0.782,1.444c-0.432,0-0.783-0.647-0.783-1.444
				c0-0.798,0.35-1.444,0.783-1.444C352.504,321.685,352.854,322.331,352.854,323.129z"/>
			<g>
				<g>
					<path style="fill:#662D91;" d="M349.098,329.135c-0.088,0-0.144-0.004-0.157-0.005l0.043-0.641
						c0.019,0.002,1.912,0.103,2.817-1.336l0.543,0.342C351.388,329.013,349.634,329.135,349.098,329.135z"/>
				</g>
			</g>
		</g>
		<g>
			<g>
				<path style="fill:#FFB296;" d="M346.043,363.494c0,0-9.433,0.824-16.87-5.162c-1.532-1.233-1.885-3.23-1.379-4.711
					c1.548-4.533,6.095-10.706,6.095-10.706l4.528,3.629l-5.072,8.251c0,0,3.625,3.825,11.064,4.535
					C345.098,360.093,346.043,363.494,346.043,363.494z"/>
			</g>
			<path style="fill:#FF9A30;" d="M338.695,334.967c0,0-2.447,0.401-4.217,3.617c-2.271,4.127-4.353,7.89-4.353,7.89l6.122,5.986
				l2.599-3.569c0,0,0.059-3.589-0.003-7.241C338.792,338.661,338.695,334.967,338.695,334.967z"/>
			<rect x="343.487" y="347.085" style="fill:#FFEDCC;" width="11.512" height="17.805"/>
			<path style="fill:#FFB296;" d="M348.8,359.477c-0.461-0.217-1.032-0.035-1.541,0.105c-0.555,0.152-1.128,0.25-1.705,0.289
				c-0.351,0.024-0.714,0.025-1.036-0.089c-0.036-0.013-0.076-0.032-0.117-0.054l0,0c-0.001,0-0.001-0.001-0.001-0.001
				c-0.05-0.027-0.101-0.059-0.153-0.096c-0.542-0.365-0.758-0.944-0.758-0.944v-2.7c-0.625,0.571-0.811,1.607-1.57,2.033
				c-1.496,0.839-1.955,2.058-1.699,3.536c0.088,0.507,0.266,1.025,0.678,1.381c0.393,0.339,0.949,0.489,1.494,0.579
				c1.479,0.243,3.045,0.117,4.472-0.36c0.394-0.132,0.782-0.292,1.11-0.527c0.449-0.322,0.762-0.767,1.014-1.224
				c0.18-0.326,0.336-0.672,0.34-1.03C349.332,360.018,349.154,359.645,348.8,359.477z"/>
		</g>
	</g>
	<g>
		<path style="fill:#481F69;" d="M187.513,329.203h-4.347v34.667h11.367c2.202,0,3.987-1.785,3.987-3.987V340.21
			C198.52,334.131,193.592,329.203,187.513,329.203z"/>
		<path style="fill:#E0422D;" d="M173.689,367.408l-0.925,55.916l5.719,0.963l9.503-56.333
			C187.986,367.954,176.541,362.972,173.689,367.408z"/>
		<path style="fill:#FF5B42;" d="M174.576,368.304l23.021,55.019l5.953-1.894l-14.577-53.125
			C188.974,368.304,175.072,365.384,174.576,368.304z"/>
		<path style="fill:#662D91;" d="M190.851,369.254c-2.618,2.615-14.213,3.333-18.846-0.534c3.67-11.468-1.11-23.108,2.008-33.827
			c0.412-1.416,2.697-2.919,3.071-2.954c0,0,3.003-1.488,7.78-0.923c1.709,0.866,6.069,3.045,5.712,7.996
			C189.314,356.521,189.818,362.054,190.851,369.254z"/>
		<g>
			<rect x="175.315" y="361.379" style="fill:#FFFFFF;" width="22.815" height="14.69"/>
			<polygon style="fill:#FFB296;" points="184.866,346.19 185.78,352.581 185.775,372.03 189.385,372.388 191.587,354.581 
				190.851,344.618 			"/>
			<path style="fill:#662D91;" d="M183.072,348.666c0,0-2.557-12.46,0.361-14.492c3.515-2.448,6.798-1.037,7.832,3.751
				c1.034,4.788,0.972,10.417,0.972,10.417s-2.038,1.078-4.468,1.107S183.072,348.666,183.072,348.666z"/>
			<path style="fill:#FFB296;" d="M185.775,372.03l-1.82,1.213l-0.415,2.906c-0.106,0.739,0.41,1.423,1.15,1.525l2.896,0.398
				c0.777,0.107,1.48-0.47,1.528-1.252l0.271-4.431C189.385,372.388,187.119,370.47,185.775,372.03z"/>
		</g>
		<path style="fill:#FFB296;" d="M184.866,331.016l-2.539-8.81l-4.269,4.682c0,0,0.133,2.636,0.653,4.491
			C173.765,338.109,180.909,335.322,184.866,331.016z"/>
		<path style="fill:#E09276;" d="M178.112,327.646c0.078,0.919,0.252,2.497,0.599,3.734c-0.133,0.181-0.254,0.352-0.37,0.52
			c4.556-2.073,4.825-6.564,4.825-6.564C182.235,324.556,179.457,326.575,178.112,327.646z"/>
		<g>
			<path style="fill:#FFB296;" d="M173.104,319.914c-0.082,4.004,1.146,8.024,2.244,8.603c1.85,0.977,6.717-0.638,9.046-2.49
				c2.877-2.289,4.476-5.941,4.048-8.772c-0.643-4.251-4.469-6.618-8.713-6.333C176.233,311.156,173.24,313.267,173.104,319.914z"/>
			<path style="fill:#662D91;" d="M173.46,316.667c2.681-1.085,5.49-0.796,8.049,0.552c-0.347,1.258-0.428,2.515-0.017,3.754
				c0.255-0.474,0.527-0.922,0.883-1.325c0.356-0.403,0.825-0.731,1.356-0.815c0.531-0.084,1.124,0.115,1.417,0.566
				c0.319,0.491,0.227,1.137,0.063,1.699c-0.23,0.788-0.601,1.57-1.245,2.08c-0.644,0.51-1.607,0.678-2.294,0.229
				c0.376,1.732,1.144,3.409,2.317,4.737c2.332-2.193,4.314-4.96,5.679-7.856c0.52-1.105,0.969-2.287,0.929-3.508
				c-0.04-1.221-0.669-2.49-1.791-2.972C189.423,313.808,163.073,297.093,173.46,316.667z"/>
			<path style="fill:#662D91;" d="M176.826,320.151c-0.092,0.753-0.497,1.324-0.905,1.274c-0.408-0.05-0.665-0.701-0.573-1.454
				c0.092-0.753,0.497-1.324,0.905-1.274C176.661,318.747,176.917,319.398,176.826,320.151z"/>
			<g>
				<g>
					<path style="fill:#662D91;" d="M174.693,325.794l-0.054-0.608c0.018-0.002,1.812-0.183,2.453-1.668l0.561,0.242
						C176.865,325.584,174.781,325.786,174.693,325.794z"/>
				</g>
			</g>
		</g>
		<g>
			<path style="fill:#481F69;" d="M181.368,361.379h-2.08v-18.914c0-3.156,0.788-5.183,2.81-7.228
				c1.751-1.77,3.884-2.918,6.288-4.13l0.936,1.857c-2.238,1.129-4.215,2.189-5.745,3.735c-1.398,1.415-2.209,2.812-2.209,5.766
				V361.379z"/>
		</g>
		<path style="fill:#481F69;" d="M172.764,423.324c0,0-21.434,5.98-1.414,5.85c6.63-0.13,6.63-0.13,6.63-0.13l0.503-4.757
			L172.764,423.324z"/>
		<path style="fill:#481F69;" d="M197.598,423.324l-3.433,2.926c0,0-10.79,3.706-2.6,3.704c8.19-0.002,13.379-2.971,13.379-2.971
			l-1.393-5.553L197.598,423.324z"/>
		<path style="fill:#481F69;" d="M177.085,331.939c-0.082,0.008-0.265,0.096-0.489,0.227c-0.853,1.434-2.36,4.257-3.534,8.044
			c-0.139,1.567-0.183,3.148-0.157,4.742c0.795-2.828,3.275-11.079,5.807-13.572C177.662,331.653,177.085,331.939,177.085,331.939z"
			/>
	</g>
</g>
<g id="DESIGNED_BY_FREEPIK">
	<g>
		<g id="XMLID_319_">
			<g id="XMLID_338_">
				<path id="XMLID_346_" d="M260.104,468.965c-0.432,0.443-0.803,0.931-1.108,1.453l-0.465-0.241
					c-0.067-0.298-0.349-0.503-0.659-0.466c-0.331,0.039-0.568,0.339-0.529,0.67c0.039,0.331,0.339,0.568,0.67,0.529
					c0.065-0.008,0.127-0.026,0.184-0.052l0.451,0.234c-0.251,0.554-0.433,1.139-0.539,1.744l0.747,0.132
					c0.23-1.306,0.85-2.507,1.792-3.473L260.104,468.965z"/>
				<path id="XMLID_345_" d="M265.592,466.663c-0.171,0-0.341,0.006-0.51,0.017l-0.074-0.626c0.188-0.149,0.296-0.389,0.266-0.645
					c-0.046-0.393-0.402-0.674-0.795-0.628c-0.393,0.046-0.674,0.402-0.628,0.795c0.03,0.254,0.189,0.461,0.404,0.564l0.074,0.624
					c-0.714,0.116-1.403,0.332-2.06,0.646l0.327,0.684c0.934-0.447,1.942-0.673,2.995-0.673c0.496,0,0.993,0.053,1.475,0.158
					l0.161-0.741C266.692,466.722,266.142,466.663,265.592,466.663z"/>
				<path id="XMLID_344_" d="M272.194,469.211c0.331-0.04,0.566-0.342,0.526-0.672c-0.04-0.331-0.341-0.566-0.672-0.526
					c-0.309,0.038-0.535,0.304-0.53,0.609l-0.416,0.363c-0.418-0.43-0.889-0.813-1.408-1.139l-0.404,0.641
					c1.134,0.715,2.021,1.726,2.563,2.925l0.691-0.313c-0.251-0.554-0.568-1.072-0.942-1.545l0.402-0.351
					C272.065,469.215,272.129,469.219,272.194,469.211z"/>
				<path id="XMLID_343_" d="M265.044,476.872c-0.386,0.023-0.775,0.035-1.157,0.035c-0.88,0-1.733-0.061-2.478-0.179
					c-0.39-0.062-0.846-0.155-1.27-0.292c1.046,1.861,3.069,3.125,5.388,3.125c2.855,0,5.262-1.916,5.95-4.504
					c-0.682,0.449-1.505,0.825-2.459,1.123C267.839,476.547,266.463,476.786,265.044,476.872z"/>
				<path id="XMLID_339_" d="M265.592,468.179c-3.352,0-6.08,2.666-6.08,5.943c0,0.426,0.046,0.849,0.137,1.261
					c0.673,0.483,2.706,0.89,5.348,0.731c2.879-0.173,5.297-0.957,6.672-2.159c-0.006-0.195-0.021-0.39-0.045-0.582
					C271.244,470.413,268.65,468.179,265.592,468.179z M263.432,474.694c-1.02,0-1.85-0.83-1.85-1.85c0-1.02,0.83-1.85,1.85-1.85
					c1.02,0,1.85,0.83,1.85,1.85C265.282,473.865,264.452,474.694,263.432,474.694z M268.17,473.786c-0.75,0-1.36-0.61-1.36-1.36
					c0-0.75,0.61-1.361,1.36-1.361c0.75,0,1.361,0.61,1.361,1.361C269.53,473.176,268.92,473.786,268.17,473.786z"/>
			</g>
			<path id="XMLID_336_" d="M281.595,470.047c-0.295-0.116-0.805-0.309-1.382-0.237c-0.551,0.069-0.844,0.341-0.844,1.007v0.866
				h2.228v1.717h-2.228v5.455h-1.932v-5.455h-1.34v-1.717h1.34v-0.888c0-1.68,0.896-2.783,2.568-2.783
				c0.643,0,1.157,0.122,1.59,0.308L281.595,470.047z"/>
			<path id="XMLID_334_" d="M286.298,473.379c-0.177-0.03-0.358-0.046-0.526-0.046c-0.896,0-1.51,0.548-1.51,1.613v3.908h-1.932
				v-7.172h1.873v0.785c0.451-0.673,1.14-0.977,2.021-0.977c0.414,0,0.848,0.128,1.094,0.337L286.298,473.379z"/>
			<path id="XMLID_331_" d="M293.965,475.257c0,0.222-0.015,0.489-0.037,0.651h-5.085c0.207,1.036,0.933,1.488,1.843,1.488
				c0.622,0,1.295-0.252,1.813-0.688l1.133,1.243c-0.814,0.748-1.85,1.088-3.057,1.088c-2.198,0-3.723-1.495-3.723-3.753
				c0-2.258,1.48-3.797,3.627-3.797C292.544,471.489,293.958,473.022,293.965,475.257z M288.851,474.591h3.175
				c-0.177-0.918-0.733-1.436-1.562-1.436C289.554,473.155,289.021,473.703,288.851,474.591z"/>
			<path id="XMLID_328_" d="M301.618,475.257c0,0.222-0.015,0.489-0.037,0.651h-5.085c0.207,1.036,0.933,1.488,1.843,1.488
				c0.622,0,1.295-0.252,1.814-0.688l1.132,1.243c-0.814,0.748-1.85,1.088-3.057,1.088c-2.198,0-3.723-1.495-3.723-3.753
				c0-2.258,1.48-3.797,3.627-3.797C300.197,471.489,301.611,473.022,301.618,475.257z M296.504,474.591h3.175
				c-0.178-0.918-0.733-1.436-1.562-1.436C297.207,473.155,296.674,473.703,296.504,474.591z"/>
			<path id="XMLID_325_" d="M309.964,475.264c0,2.154-1.495,3.775-3.471,3.775c-0.962,0-1.643-0.378-2.109-0.933v3.708h-1.924
				v-10.133h1.887v0.792c0.466-0.585,1.155-0.984,2.139-0.984C308.469,471.489,309.964,473.11,309.964,475.264z M304.287,475.264
				c0,1.132,0.747,1.976,1.843,1.976c1.14,0,1.85-0.881,1.85-1.976c0-1.095-0.71-1.976-1.85-1.976
				C305.035,473.288,304.287,474.132,304.287,475.264z"/>
			<path id="XMLID_322_" d="M313.068,469.336c0,0.696-0.54,1.229-1.236,1.229c-0.696,0-1.229-0.533-1.229-1.229
				c0-0.696,0.533-1.243,1.229-1.243C312.527,468.092,313.068,468.64,313.068,469.336z M312.809,478.854h-1.932v-7.172h1.932
				V478.854z"/>
			<path id="XMLID_320_" d="M316.032,474.235l2.701-2.554h2.368l-3.479,3.375l3.501,3.797h-2.376l-2.716-2.901v2.901H314.1v-10.658
				h1.932V474.235z"/>
		</g>
		<g>
			<path d="M184.412,478.789v-1.055c-0.527,0.718-1.391,1.23-2.387,1.23c-1.846,0-3.149-1.406-3.149-3.706
				c0-2.256,1.289-3.721,3.149-3.721c0.952,0,1.816,0.469,2.387,1.245v-3.765h1.099v9.77H184.412z M184.412,476.87v-3.208
				c-0.395-0.615-1.245-1.143-2.124-1.143c-1.421,0-2.27,1.172-2.27,2.739c0,1.567,0.85,2.724,2.27,2.724
				C183.168,477.983,184.017,477.485,184.412,476.87z"/>
			<path d="M186.932,475.244c0-2.051,1.465-3.706,3.486-3.706c2.139,0,3.398,1.67,3.398,3.794v0.279h-5.727
				c0.088,1.333,1.025,2.446,2.549,2.446c0.806,0,1.626-0.322,2.182-0.893l0.527,0.718c-0.703,0.703-1.655,1.084-2.812,1.084
				C188.441,478.965,186.932,477.456,186.932,475.244z M190.404,472.447c-1.509,0-2.256,1.274-2.314,2.358h4.643
				C192.718,473.75,192.015,472.447,190.404,472.447z"/>
			<path d="M194.607,477.851l0.571-0.791c0.469,0.542,1.362,1.011,2.329,1.011c1.084,0,1.67-0.513,1.67-1.216
				c0-1.713-4.38-0.659-4.38-3.281c0-1.098,0.952-2.036,2.636-2.036c1.201,0,2.051,0.454,2.622,1.025l-0.513,0.762
				c-0.424-0.513-1.201-0.894-2.109-0.894c-0.967,0-1.567,0.483-1.567,1.113c0,1.552,4.38,0.527,4.38,3.281
				c0,1.187-0.952,2.138-2.783,2.138C196.306,478.965,195.325,478.613,194.607,477.851z"/>
			<path d="M201.477,469.971c0-0.41,0.337-0.747,0.732-0.747c0.41,0,0.747,0.337,0.747,0.747c0,0.41-0.337,0.732-0.747,0.732
				C201.814,470.703,201.477,470.381,201.477,469.971z M201.667,478.789v-7.075h1.099v7.075H201.667z"/>
			<path d="M204.582,480.605l0.556-0.82c0.586,0.703,1.289,0.967,2.3,0.967c1.172,0,2.27-0.571,2.27-2.124v-1.011
				c-0.513,0.718-1.377,1.26-2.373,1.26c-1.845,0-3.149-1.377-3.149-3.662c0-2.27,1.289-3.676,3.149-3.676
				c0.952,0,1.802,0.469,2.373,1.245v-1.069h1.099v6.87c0,2.344-1.641,3.076-3.369,3.076
				C206.237,481.66,205.417,481.425,204.582,480.605z M209.709,476.753v-3.091c-0.381-0.615-1.23-1.143-2.109-1.143
				c-1.421,0-2.27,1.128-2.27,2.695c0,1.553,0.849,2.695,2.27,2.695C208.478,477.91,209.328,477.368,209.709,476.753z"/>
			<path d="M217.413,478.789v-4.629c0-1.245-0.63-1.641-1.582-1.641c-0.865,0-1.685,0.527-2.095,1.099v5.17h-1.099v-7.075h1.099
				v1.025c0.498-0.586,1.464-1.201,2.519-1.201c1.48,0,2.256,0.747,2.256,2.285v4.966H217.413z"/>
			<path d="M219.932,475.244c0-2.051,1.465-3.706,3.486-3.706c2.139,0,3.398,1.67,3.398,3.794v0.279h-5.727
				c0.088,1.333,1.025,2.446,2.549,2.446c0.806,0,1.626-0.322,2.183-0.893l0.527,0.718c-0.703,0.703-1.655,1.084-2.812,1.084
				C221.441,478.965,219.932,477.456,219.932,475.244z M223.404,472.447c-1.509,0-2.256,1.274-2.314,2.358h4.643
				C225.718,473.75,225.015,472.447,223.404,472.447z"/>
			<path d="M233.35,478.789v-1.055c-0.527,0.718-1.392,1.23-2.388,1.23c-1.846,0-3.149-1.406-3.149-3.706
				c0-2.256,1.289-3.721,3.149-3.721c0.952,0,1.817,0.469,2.388,1.245v-3.765h1.098v9.77H233.35z M233.35,476.87v-3.208
				c-0.396-0.615-1.245-1.143-2.124-1.143c-1.421,0-2.27,1.172-2.27,2.739c0,1.567,0.849,2.724,2.27,2.724
				C232.105,477.983,232.954,477.485,233.35,476.87z"/>
			<path d="M239.692,478.789v-9.77h1.098v3.765c0.572-0.776,1.421-1.245,2.388-1.245c1.845,0,3.149,1.465,3.149,3.721
				c0,2.299-1.304,3.706-3.149,3.706c-0.996,0-1.86-0.513-2.388-1.23v1.055H239.692z M242.9,477.983
				c1.436,0,2.285-1.157,2.285-2.724c0-1.568-0.85-2.739-2.285-2.739c-0.864,0-1.728,0.527-2.109,1.143v3.208
				C241.171,477.485,242.036,477.983,242.9,477.983z"/>
			<path d="M247.528,480.561c0.161,0.073,0.425,0.117,0.601,0.117c0.483,0,0.805-0.161,1.055-0.747l0.469-1.069l-2.959-7.148h1.187
				l2.358,5.801l2.344-5.801h1.201l-3.545,8.51c-0.425,1.025-1.143,1.421-2.08,1.435c-0.234,0-0.601-0.044-0.806-0.103
				L247.528,480.561z"/>
		</g>
	</g>
</g>
</svg>
